<?xml version="1.0" encoding="UTF-8"?>
<!DOCTYPE svg PUBLIC "-//W3C//DTD SVG 1.1//EN" "http://www.w3.org/Graphics/SVG/1.1/DTD/svg11.dtd">
<svg xmlns="http://www.w3.org/2000/svg" version="1.1" width="1563px" height="1563px" style="shape-rendering:geometricPrecision; text-rendering:geometricPrecision; image-rendering:optimizeQuality; fill-rule:evenodd; clip-rule:evenodd" xmlns:xlink="http://www.w3.org/1999/xlink">
<g><path style="opacity:1" fill="#010101" d="M -0.5,-0.5 C 370.833,-0.5 742.167,-0.5 1113.5,-0.5C 1113.83,91.3348 1113.5,183.002 1112.5,274.5C 1077.23,249.335 1038.23,232.169 995.5,223C 928.664,210.213 861.664,209.213 794.5,220C 649.585,250.25 570.085,339.084 556,486.5C 554.744,505.145 554.244,523.812 554.5,542.5C 539.167,542.5 523.833,542.5 508.5,542.5C 508.5,521.167 508.5,499.833 508.5,478.5C 422.335,477.501 336.002,477.167 249.5,477.5C 249.5,442.5 249.5,407.5 249.5,372.5C 350.001,372.833 450.335,372.499 550.5,371.5C 550.5,322.167 550.5,272.833 550.5,223.5C 383.667,222.5 216.667,222.167 49.5,222.5C 49.5,329.167 49.5,435.833 49.5,542.5C 32.8333,542.5 16.1667,542.5 -0.5,542.5C -0.5,361.5 -0.5,180.5 -0.5,-0.5 Z"/></g>
<g><path style="opacity:1" fill="#727272" d="M 1113.5,-0.5 C 1116.83,-0.5 1120.17,-0.5 1123.5,-0.5C 1123.5,94.1667 1123.5,188.833 1123.5,283.5C 1122.5,359.998 1122.17,436.665 1122.5,513.5C 1134.83,513.5 1147.17,513.5 1159.5,513.5C 1159.17,523.348 1159.51,533.014 1160.5,542.5C 1181.5,542.5 1202.5,542.5 1223.5,542.5C 1267.5,542.5 1311.5,542.5 1355.5,542.5C 1355.5,361.5 1355.5,180.5 1355.5,-0.5C 1359.5,-0.5 1363.5,-0.5 1367.5,-0.5C 1365.85,180.495 1365.18,361.495 1365.5,542.5C 1431.17,542.5 1496.83,542.5 1562.5,542.5C 1562.5,545.833 1562.5,549.167 1562.5,552.5C 1496.83,552.5 1431.17,552.5 1365.5,552.5C 1365.5,602.167 1365.5,651.833 1365.5,701.5C 1364.17,866.167 1364.17,1030.83 1365.5,1195.5C 1395.83,1195.5 1426.17,1195.5 1456.5,1195.5C 1456.5,1031.17 1456.5,866.833 1456.5,702.5C 1456.5,702.167 1456.5,701.833 1456.5,701.5C 1457.5,865.999 1457.83,1030.67 1457.5,1195.5C 1492.5,1195.5 1527.5,1195.5 1562.5,1195.5C 1562.5,1198.5 1562.5,1201.5 1562.5,1204.5C 1527.5,1204.5 1492.5,1204.5 1457.5,1204.5C 1457.5,1243.5 1457.5,1282.5 1457.5,1321.5C 1426.83,1321.5 1396.17,1321.5 1365.5,1321.5C 1365.5,1401.83 1365.5,1482.17 1365.5,1562.5C 1362.17,1562.5 1358.83,1562.5 1355.5,1562.5C 1355.5,1482.17 1355.5,1401.83 1355.5,1321.5C 1323,1321.83 1290.66,1321.5 1258.5,1320.5C 1257.5,1282 1257.17,1243.34 1257.5,1204.5C 1232.09,1204.18 1206.76,1204.51 1181.5,1205.5C 1162.34,1204.5 1143.01,1204.17 1123.5,1204.5C 1122.17,1229.17 1122.17,1253.83 1123.5,1278.5C 1123.5,1373.17 1123.5,1467.83 1123.5,1562.5C 1120.5,1562.5 1117.5,1562.5 1114.5,1562.5C 1114.83,1470 1114.5,1377.67 1113.5,1285.5C 1113.5,1258.83 1113.5,1232.17 1113.5,1205.5C 954.001,1204.5 794.334,1204.17 634.5,1204.5C 422.833,1204.5 211.167,1204.5 -0.5,1204.5C -0.5,1201.5 -0.5,1198.5 -0.5,1195.5C 209.833,1195.5 420.167,1195.5 630.5,1195.5C 791.5,1195.5 952.5,1195.5 1113.5,1195.5C 1113.83,1121.76 1113.5,1048.1 1112.5,974.5C 1113.5,947.338 1113.83,920.005 1113.5,892.5C 1113.83,843.428 1113.49,794.428 1112.5,745.5C 1113.49,740.025 1113.82,734.358 1113.5,728.5C 1113.5,680.167 1113.5,631.833 1113.5,583.5C 1101.17,583.5 1088.83,583.5 1076.5,583.5C 1076.5,572.833 1076.5,562.167 1076.5,551.5C 1057.83,551.5 1039.17,551.5 1020.5,551.5C 1020.82,555.702 1020.48,559.702 1019.5,563.5C 1019.5,559.5 1019.5,555.5 1019.5,551.5C 932.5,551.5 845.5,551.5 758.5,551.5C 758.5,560.5 758.5,569.5 758.5,578.5C 757.507,570.016 757.174,561.349 757.5,552.5C 690.002,551.501 622.335,551.167 554.5,551.5C 539.167,551.5 523.833,551.5 508.5,551.5C 355.666,551.167 202.999,551.5 50.5,552.5C 50.5,649.167 50.5,745.833 50.5,842.5C 116.5,842.5 182.5,842.5 248.5,842.5C 182.335,843.499 116.002,843.832 49.5,843.5C 49.5,746.167 49.5,648.833 49.5,551.5C 32.8333,551.5 16.1667,551.5 -0.5,551.5C -0.5,548.5 -0.5,545.5 -0.5,542.5C 16.1667,542.5 32.8333,542.5 49.5,542.5C 49.8333,542.5 50.1667,542.5 50.5,542.5C 203.167,542.5 355.833,542.5 508.5,542.5C 523.833,542.5 539.167,542.5 554.5,542.5C 622.167,542.5 689.833,542.5 757.5,542.5C 757.17,523.992 757.503,505.659 758.5,487.5C 758.5,505.833 758.5,524.167 758.5,542.5C 845.5,542.5 932.5,542.5 1019.5,542.5C 1019.5,525.5 1019.5,508.5 1019.5,491.5C 1020.5,508.325 1020.83,525.325 1020.5,542.5C 1039.17,542.5 1057.83,542.5 1076.5,542.5C 1076.5,532.5 1076.5,522.5 1076.5,512.5C 1088.83,512.5 1101.17,512.5 1113.5,512.5C 1113.83,433.096 1113.5,353.763 1112.5,274.5C 1113.5,183.002 1113.83,91.3348 1113.5,-0.5 Z"/></g>
<g><path style="opacity:1" fill="#010101" d="M 1123.5,-0.5 C 1200.83,-0.5 1278.17,-0.5 1355.5,-0.5C 1355.5,180.5 1355.5,361.5 1355.5,542.5C 1311.5,542.5 1267.5,542.5 1223.5,542.5C 1225.55,491.024 1218.05,441.024 1201,392.5C 1184.99,349.672 1159.49,313.672 1124.5,284.5C 1124.5,283.833 1124.17,283.5 1123.5,283.5C 1123.5,188.833 1123.5,94.1667 1123.5,-0.5 Z"/></g>
<g><path style="opacity:1" fill="#010101" d="M 1367.5,-0.5 C 1432.5,-0.5 1497.5,-0.5 1562.5,-0.5C 1562.5,180.5 1562.5,361.5 1562.5,542.5C 1496.83,542.5 1431.17,542.5 1365.5,542.5C 1365.18,361.495 1365.85,180.495 1367.5,-0.5 Z"/></g>
<g><path style="opacity:1" fill="#fefefe" d="M 1112.5,274.5 C 1113.5,353.763 1113.83,433.096 1113.5,512.5C 1101.17,512.5 1088.83,512.5 1076.5,512.5C 1076.5,522.5 1076.5,532.5 1076.5,542.5C 1057.83,542.5 1039.17,542.5 1020.5,542.5C 1020.83,525.325 1020.5,508.325 1019.5,491.5C 1011.84,398.674 961.503,355.507 868.5,362C 821.454,367.069 788.62,391.236 770,434.5C 763.479,451.585 759.646,469.251 758.5,487.5C 757.503,505.659 757.17,523.992 757.5,542.5C 689.833,542.5 622.167,542.5 554.5,542.5C 554.244,523.812 554.744,505.145 556,486.5C 570.085,339.084 649.585,250.25 794.5,220C 861.664,209.213 928.664,210.213 995.5,223C 1038.23,232.169 1077.23,249.335 1112.5,274.5 Z"/></g>
<g><path style="opacity:1" fill="#919191" d="M 550.5,223.5 C 383.833,223.5 217.167,223.5 50.5,223.5C 50.5,329.5 50.5,435.5 50.5,541.5C 50.5,541.833 50.5,542.167 50.5,542.5C 50.1667,542.5 49.8333,542.5 49.5,542.5C 49.5,435.833 49.5,329.167 49.5,222.5C 216.667,222.167 383.667,222.5 550.5,223.5 Z"/></g>
<g><path style="opacity:1" fill="#fefefe" d="M 550.5,223.5 C 550.5,272.833 550.5,322.167 550.5,371.5C 449.833,371.5 349.167,371.5 248.5,371.5C 248.5,407.167 248.5,442.833 248.5,478.5C 334.833,478.5 421.167,478.5 507.5,478.5C 507.5,499.5 507.5,520.5 507.5,541.5C 355.167,541.5 202.833,541.5 50.5,541.5C 50.5,435.5 50.5,329.5 50.5,223.5C 217.167,223.5 383.833,223.5 550.5,223.5 Z"/></g>
<g><path style="opacity:1" fill="#b2b2b2" d="M 1123.5,283.5 C 1124.17,283.5 1124.5,283.833 1124.5,284.5C 1123.5,360.332 1123.17,436.332 1123.5,512.5C 1135.83,512.5 1148.17,512.5 1160.5,512.5C 1160.5,522.5 1160.5,532.5 1160.5,542.5C 1159.51,533.014 1159.17,523.348 1159.5,513.5C 1147.17,513.5 1134.83,513.5 1122.5,513.5C 1122.17,436.665 1122.5,359.998 1123.5,283.5 Z"/></g>
<g><path style="opacity:1" fill="#fefefe" d="M 1124.5,284.5 C 1159.49,313.672 1184.99,349.672 1201,392.5C 1218.05,441.024 1225.55,491.024 1223.5,542.5C 1202.5,542.5 1181.5,542.5 1160.5,542.5C 1160.5,532.5 1160.5,522.5 1160.5,512.5C 1148.17,512.5 1135.83,512.5 1123.5,512.5C 1123.17,436.332 1123.5,360.332 1124.5,284.5 Z"/></g>
<g><path style="opacity:1" fill="#010101" d="M 1019.5,491.5 C 1019.5,508.5 1019.5,525.5 1019.5,542.5C 932.5,542.5 845.5,542.5 758.5,542.5C 758.5,524.167 758.5,505.833 758.5,487.5C 759.646,469.251 763.479,451.585 770,434.5C 788.62,391.236 821.454,367.069 868.5,362C 961.503,355.507 1011.84,398.674 1019.5,491.5 Z"/></g>
<g><path style="opacity:1" fill="#676767" d="M 550.5,371.5 C 450.335,372.499 350.001,372.833 249.5,372.5C 249.5,407.5 249.5,442.5 249.5,477.5C 336.002,477.167 422.335,477.501 508.5,478.5C 508.167,478.5 507.833,478.5 507.5,478.5C 421.167,478.5 334.833,478.5 248.5,478.5C 248.5,442.833 248.5,407.167 248.5,371.5C 349.167,371.5 449.833,371.5 550.5,371.5 Z"/></g>
<g><path style="opacity:1" fill="#fdfdfd" d="M 1113.5,522.5 C 1113.5,529.167 1113.5,535.833 1113.5,542.5C 1104.5,542.5 1095.5,542.5 1086.5,542.5C 1086.5,535.833 1086.5,529.167 1086.5,522.5C 1095.5,522.5 1104.5,522.5 1113.5,522.5 Z"/></g>
<g><path style="opacity:1" fill="#afafaf" d="M 1150.5,542.5 C 1150.5,535.833 1150.5,529.167 1150.5,522.5C 1141.5,522.5 1132.5,522.5 1123.5,522.5C 1123.5,529.167 1123.5,535.833 1123.5,542.5C 1122.51,535.687 1122.18,528.687 1122.5,521.5C 1132.17,521.5 1141.83,521.5 1151.5,521.5C 1151.82,528.687 1151.49,535.687 1150.5,542.5 Z"/></g>
<g><path style="opacity:1" fill="#fdfdfd" d="M 1150.5,542.5 C 1141.5,542.5 1132.5,542.5 1123.5,542.5C 1123.5,535.833 1123.5,529.167 1123.5,522.5C 1132.5,522.5 1141.5,522.5 1150.5,522.5C 1150.5,529.167 1150.5,535.833 1150.5,542.5 Z"/></g>
<g><path style="opacity:1" fill="#c5c5c5" d="M 1113.5,522.5 C 1104.5,522.5 1095.5,522.5 1086.5,522.5C 1086.5,529.167 1086.5,535.833 1086.5,542.5C 1085.51,535.687 1085.18,528.687 1085.5,521.5C 1095.01,521.173 1104.35,521.506 1113.5,522.5 Z"/></g>
<g><path style="opacity:1" fill="#ebebeb" d="M 507.5,478.5 C 507.833,478.5 508.167,478.5 508.5,478.5C 508.5,499.833 508.5,521.167 508.5,542.5C 355.833,542.5 203.167,542.5 50.5,542.5C 50.5,542.167 50.5,541.833 50.5,541.5C 202.833,541.5 355.167,541.5 507.5,541.5C 507.5,520.5 507.5,499.5 507.5,478.5 Z"/></g>
<g><path style="opacity:1" fill="#010101" d="M -0.5,551.5 C 16.1667,551.5 32.8333,551.5 49.5,551.5C 49.5,648.833 49.5,746.167 49.5,843.5C 116.002,843.832 182.335,843.499 248.5,842.5C 249.499,768.669 249.833,694.669 249.5,620.5C 335.833,620.5 422.167,620.5 508.5,620.5C 508.5,597.5 508.5,574.5 508.5,551.5C 523.833,551.5 539.167,551.5 554.5,551.5C 554.181,556.363 554.514,561.03 555.5,565.5C 557.151,618.778 570.651,668.778 596,715.5C 609.324,738.499 625.991,758.832 646,776.5C 663.537,751.962 685.704,732.795 712.5,719C 742.901,703.145 774.901,691.978 808.5,685.5C 809.675,685.719 810.675,685.386 811.5,684.5C 811.376,683.893 811.043,683.56 810.5,683.5C 792.821,670.515 779.654,653.848 771,633.5C 764.051,615.809 759.884,597.476 758.5,578.5C 758.5,569.5 758.5,560.5 758.5,551.5C 845.5,551.5 932.5,551.5 1019.5,551.5C 1019.5,555.5 1019.5,559.5 1019.5,563.5C 1020.88,601.488 1010.05,635.488 987,665.5C 982.135,670.7 976.968,675.533 971.5,680C 1022.49,685.941 1069.83,702.108 1113.5,728.5C 1113.82,734.358 1113.49,740.025 1112.5,745.5C 1064.4,714.795 1011.73,697.295 954.5,693C 895.584,687.205 837.584,691.872 780.5,707C 744.428,717.368 711.762,734.034 682.5,757C 644.997,792.804 626.997,836.804 628.5,889C 627.897,925.177 637.397,958.344 657,988.5C 679.973,1016.81 708.139,1038.31 741.5,1053C 763.187,1061.01 785.187,1068.01 807.5,1074C 840.615,1082.61 873.948,1090.28 907.5,1097C 929.711,1101.97 951.378,1108.64 972.5,1117C 994.67,1129.51 999.837,1147.01 988,1169.5C 979.186,1177.89 968.686,1183.06 956.5,1185C 923.813,1190.81 891.146,1190.81 858.5,1185C 828.064,1178.9 811.23,1160.4 808,1129.5C 807.828,1123.32 807.328,1117.32 806.5,1111.5C 744.002,1110.5 681.336,1110.17 618.5,1110.5C 618.178,1116.36 618.511,1122.02 619.5,1127.5C 620.563,1149.54 623.897,1171.21 629.5,1192.5C 419.836,1194.5 209.836,1195.17 -0.5,1194.5C -0.5,980.167 -0.5,765.833 -0.5,551.5 Z"/></g>
<g><path style="opacity:1" fill="#d6d6d6" d="M 554.5,551.5 C 622.335,551.167 690.002,551.501 757.5,552.5C 690.167,552.5 622.833,552.5 555.5,552.5C 555.5,556.833 555.5,561.167 555.5,565.5C 554.514,561.03 554.181,556.363 554.5,551.5 Z"/></g>
<g><path style="opacity:1" fill="#bfbfbf" d="M 50.5,552.5 C 202.999,551.5 355.666,551.167 508.5,551.5C 508.5,574.5 508.5,597.5 508.5,620.5C 422.167,620.5 335.833,620.5 249.5,620.5C 249.833,694.669 249.499,768.669 248.5,842.5C 248.5,768.167 248.5,693.833 248.5,619.5C 334.833,619.5 421.167,619.5 507.5,619.5C 507.5,597.167 507.5,574.833 507.5,552.5C 355.167,552.5 202.833,552.5 50.5,552.5 Z"/></g>
<g><path style="opacity:1" fill="#fefefe" d="M 50.5,552.5 C 202.833,552.5 355.167,552.5 507.5,552.5C 507.5,574.833 507.5,597.167 507.5,619.5C 421.167,619.5 334.833,619.5 248.5,619.5C 248.5,693.833 248.5,768.167 248.5,842.5C 182.5,842.5 116.5,842.5 50.5,842.5C 50.5,745.833 50.5,649.167 50.5,552.5 Z"/></g>
<g><path style="opacity:1" fill="#fefefe" d="M 757.5,552.5 C 757.174,561.349 757.507,570.016 758.5,578.5C 759.884,597.476 764.051,615.809 771,633.5C 779.654,653.848 792.821,670.515 810.5,683.5C 809.833,684.167 809.167,684.833 808.5,685.5C 774.901,691.978 742.901,703.145 712.5,719C 685.704,732.795 663.537,751.962 646,776.5C 625.991,758.832 609.324,738.499 596,715.5C 570.651,668.778 557.151,618.778 555.5,565.5C 555.5,561.167 555.5,556.833 555.5,552.5C 622.833,552.5 690.167,552.5 757.5,552.5 Z"/></g>
<g><path style="opacity:1" fill="#fefefe" d="M 1113.5,728.5 C 1069.83,702.108 1022.49,685.941 971.5,680C 976.968,675.533 982.135,670.7 987,665.5C 1010.05,635.488 1020.88,601.488 1019.5,563.5C 1020.48,559.702 1020.82,555.702 1020.5,551.5C 1039.17,551.5 1057.83,551.5 1076.5,551.5C 1076.5,562.167 1076.5,572.833 1076.5,583.5C 1088.83,583.5 1101.17,583.5 1113.5,583.5C 1113.5,631.833 1113.5,680.167 1113.5,728.5 Z"/></g>
<g><path style="opacity:1" fill="#cacaca" d="M 1113.5,552.5 C 1104.5,552.5 1095.5,552.5 1086.5,552.5C 1086.5,559.5 1086.5,566.5 1086.5,573.5C 1095.5,573.5 1104.5,573.5 1113.5,573.5C 1104.35,574.494 1095.01,574.827 1085.5,574.5C 1085.5,566.833 1085.5,559.167 1085.5,551.5C 1095.01,551.173 1104.35,551.506 1113.5,552.5 Z"/></g>
<g><path style="opacity:1" fill="#fefefe" d="M 1113.5,552.5 C 1113.5,559.5 1113.5,566.5 1113.5,573.5C 1104.5,573.5 1095.5,573.5 1086.5,573.5C 1086.5,566.5 1086.5,559.5 1086.5,552.5C 1095.5,552.5 1104.5,552.5 1113.5,552.5 Z"/></g>
<g><path style="opacity:1" fill="#fdfdfd" d="M 1123.5,552.5 C 1132.5,552.5 1141.5,552.5 1150.5,552.5C 1150.5,559.5 1150.5,566.5 1150.5,573.5C 1141.5,573.5 1132.5,573.5 1123.5,573.5C 1123.5,566.5 1123.5,559.5 1123.5,552.5 Z"/></g>
<g><path style="opacity:1" fill="#fefefe" d="M 1160.5,552.5 C 1181.17,552.5 1201.83,552.5 1222.5,552.5C 1222.5,555.5 1222.5,558.5 1222.5,561.5C 1221.11,613.386 1208.61,662.386 1185,708.5C 1174.96,726.579 1162.96,743.246 1149,758.5C 1141.31,750.095 1132.81,742.761 1123.5,736.5C 1123.5,685.5 1123.5,634.5 1123.5,583.5C 1135.83,583.5 1148.17,583.5 1160.5,583.5C 1160.5,573.167 1160.5,562.833 1160.5,552.5 Z"/></g>
<g><path style="opacity:1" fill="#010101" d="M 1355.5,701.5 C 1323.17,701.5 1290.83,701.5 1258.5,701.5C 1257.5,865.999 1257.17,1030.67 1257.5,1195.5C 1233.48,1196.16 1209.81,1195.49 1186.5,1193.5C 1198.76,1152.65 1200.6,1111.32 1192,1069.5C 1184.01,1041.36 1168.85,1017.86 1146.5,999C 1139.57,992.899 1132.24,987.399 1124.5,982.5C 1124.5,981.833 1124.17,981.5 1123.5,981.5C 1123.5,951.833 1123.5,922.167 1123.5,892.5C 1142.5,892.5 1161.5,892.5 1180.5,892.5C 1183.58,837.688 1164.91,792.021 1124.5,755.5C 1124.5,754.833 1124.17,754.5 1123.5,754.5C 1123.5,748.5 1123.5,742.5 1123.5,736.5C 1132.81,742.761 1141.31,750.095 1149,758.5C 1162.96,743.246 1174.96,726.579 1185,708.5C 1208.61,662.386 1221.11,613.386 1222.5,561.5C 1223.48,558.713 1223.81,555.713 1223.5,552.5C 1267.5,552.5 1311.5,552.5 1355.5,552.5C 1355.5,602.167 1355.5,651.833 1355.5,701.5 Z"/></g>
<g><path style="opacity:1" fill="#000000" d="M 1562.5,552.5 C 1562.5,766.833 1562.5,981.167 1562.5,1195.5C 1527.5,1195.5 1492.5,1195.5 1457.5,1195.5C 1457.83,1030.67 1457.5,865.999 1456.5,701.5C 1426.17,701.5 1395.83,701.5 1365.5,701.5C 1365.5,651.833 1365.5,602.167 1365.5,552.5C 1431.17,552.5 1496.83,552.5 1562.5,552.5 Z"/></g>
<g><path style="opacity:1" fill="#b5b5b5" d="M 1123.5,552.5 C 1123.5,559.5 1123.5,566.5 1123.5,573.5C 1132.5,573.5 1141.5,573.5 1150.5,573.5C 1141.35,574.494 1132.01,574.827 1122.5,574.5C 1122.17,566.41 1122.5,559.077 1123.5,552.5 Z"/></g>
<g><path style="opacity:1" fill="#b1b1b1" d="M 1160.5,552.5 C 1160.5,562.833 1160.5,573.167 1160.5,583.5C 1148.17,583.5 1135.83,583.5 1123.5,583.5C 1135.32,582.505 1147.32,582.172 1159.5,582.5C 1159.17,572.319 1159.51,562.319 1160.5,552.5 Z"/></g>
<g><path style="opacity:1" fill="#777777" d="M 810.5,683.5 C 811.043,683.56 811.376,683.893 811.5,684.5C 810.675,685.386 809.675,685.719 808.5,685.5C 809.167,684.833 809.833,684.167 810.5,683.5 Z"/></g>
<g><path style="opacity:1" fill="#fefefe" d="M 1112.5,745.5 C 1113.49,794.428 1113.83,843.428 1113.5,892.5C 1073.83,892.5 1034.17,892.5 994.5,892.5C 994.442,861.953 980.108,841.453 951.5,831C 922.746,823.46 894.079,823.793 865.5,832C 855.967,835.547 847.467,840.713 840,847.5C 830.186,861.027 830.186,874.694 840,888.5C 847.102,895.304 855.268,900.47 864.5,904C 875.06,907.743 885.727,911.076 896.5,914C 929.747,921.763 963.08,929.096 996.5,936C 1026.58,943.247 1056.24,951.914 1085.5,962C 1094.77,965.696 1103.77,969.862 1112.5,974.5C 1113.5,1048.1 1113.83,1121.76 1113.5,1195.5C 952.5,1195.5 791.5,1195.5 630.5,1195.5C 630.737,1194.21 630.404,1193.21 629.5,1192.5C 623.897,1171.21 620.563,1149.54 619.5,1127.5C 619.5,1122.17 619.5,1116.83 619.5,1111.5C 681.833,1111.5 744.167,1111.5 806.5,1111.5C 807.328,1117.32 807.828,1123.32 808,1129.5C 811.23,1160.4 828.064,1178.9 858.5,1185C 891.146,1190.81 923.813,1190.81 956.5,1185C 968.686,1183.06 979.186,1177.89 988,1169.5C 999.837,1147.01 994.67,1129.51 972.5,1117C 951.378,1108.64 929.711,1101.97 907.5,1097C 873.948,1090.28 840.615,1082.61 807.5,1074C 785.187,1068.01 763.187,1061.01 741.5,1053C 708.139,1038.31 679.973,1016.81 657,988.5C 637.397,958.344 627.897,925.177 628.5,889C 626.997,836.804 644.997,792.804 682.5,757C 711.762,734.034 744.428,717.368 780.5,707C 837.584,691.872 895.584,687.205 954.5,693C 1011.73,697.295 1064.4,714.795 1112.5,745.5 Z"/></g>
<g><path style="opacity:1" fill="#fefefe" d="M 1258.5,702.5 C 1290.83,702.5 1323.17,702.5 1355.5,702.5C 1355.5,866.833 1355.5,1031.17 1355.5,1195.5C 1323.17,1195.5 1290.83,1195.5 1258.5,1195.5C 1258.5,1031.17 1258.5,866.833 1258.5,702.5 Z"/></g>
<g><path style="opacity:1" fill="#aaaaaa" d="M 1258.5,702.5 C 1258.5,702.167 1258.5,701.833 1258.5,701.5C 1290.83,701.5 1323.17,701.5 1355.5,701.5C 1356.83,866.167 1356.83,1030.83 1355.5,1195.5C 1355.5,1031.17 1355.5,866.833 1355.5,702.5C 1323.17,702.5 1290.83,702.5 1258.5,702.5 Z"/></g>
<g><path style="opacity:1" fill="#9b9b9b" d="M 1365.5,701.5 C 1395.83,701.5 1426.17,701.5 1456.5,701.5C 1456.5,701.833 1456.5,702.167 1456.5,702.5C 1426.17,702.5 1395.83,702.5 1365.5,702.5C 1365.5,866.833 1365.5,1031.17 1365.5,1195.5C 1364.17,1030.83 1364.17,866.167 1365.5,701.5 Z"/></g>
<g><path style="opacity:1" fill="#fefefe" d="M 1456.5,702.5 C 1456.5,866.833 1456.5,1031.17 1456.5,1195.5C 1426.17,1195.5 1395.83,1195.5 1365.5,1195.5C 1365.5,1031.17 1365.5,866.833 1365.5,702.5C 1395.83,702.5 1426.17,702.5 1456.5,702.5 Z"/></g>
<g><path style="opacity:1" fill="#b1b1b1" d="M 1123.5,754.5 C 1124.17,754.5 1124.5,754.833 1124.5,755.5C 1123.5,800.997 1123.17,846.664 1123.5,892.5C 1122.17,846.5 1122.17,800.5 1123.5,754.5 Z"/></g>
<g><path style="opacity:1" fill="#fdfdfd" d="M 1124.5,755.5 C 1164.91,792.021 1183.58,837.688 1180.5,892.5C 1161.5,892.5 1142.5,892.5 1123.5,892.5C 1123.17,846.664 1123.5,800.997 1124.5,755.5 Z"/></g>
<g><path style="opacity:1" fill="#020202" d="M 1113.5,892.5 C 1113.83,920.005 1113.5,947.338 1112.5,974.5C 1103.77,969.862 1094.77,965.696 1085.5,962C 1056.24,951.914 1026.58,943.247 996.5,936C 963.08,929.096 929.747,921.763 896.5,914C 885.727,911.076 875.06,907.743 864.5,904C 855.268,900.47 847.102,895.304 840,888.5C 830.186,874.694 830.186,861.027 840,847.5C 847.467,840.713 855.967,835.547 865.5,832C 894.079,823.793 922.746,823.46 951.5,831C 980.108,841.453 994.442,861.953 994.5,892.5C 1034.17,892.5 1073.83,892.5 1113.5,892.5 Z"/></g>
<g><path style="opacity:1" fill="#f6f6f6" d="M 864.5,853.5 C 862.5,852.833 860.5,852.167 858.5,851.5C 869.729,845.524 881.729,842.024 894.5,841C 913.508,839.297 932.175,840.964 950.5,846C 952.5,847 954.5,848 956.5,849C 925.969,852.859 895.302,854.359 864.5,853.5 Z"/></g>
<g><path style="opacity:1" fill="#636363" d="M 858.5,851.5 C 860.5,852.167 862.5,852.833 864.5,853.5C 862.076,853.808 859.743,853.474 857.5,852.5C 857.624,851.893 857.957,851.56 858.5,851.5 Z"/></g>
<g><path style="opacity:1" fill="#b1b1b1" d="M 1123.5,981.5 C 1124.17,981.5 1124.5,981.833 1124.5,982.5C 1123.5,1053.33 1123.17,1124.33 1123.5,1195.5C 1122.17,1124.17 1122.17,1052.83 1123.5,981.5 Z"/></g>
<g><path style="opacity:1" fill="#fefefe" d="M 1124.5,982.5 C 1132.24,987.399 1139.57,992.899 1146.5,999C 1168.85,1017.86 1184.01,1041.36 1192,1069.5C 1200.6,1111.32 1198.76,1152.65 1186.5,1193.5C 1165.73,1195.47 1144.73,1196.14 1123.5,1195.5C 1123.17,1124.33 1123.5,1053.33 1124.5,982.5 Z"/></g>
<g><path style="opacity:1" fill="#606060" d="M 806.5,1111.5 C 744.167,1111.5 681.833,1111.5 619.5,1111.5C 619.5,1116.83 619.5,1122.17 619.5,1127.5C 618.511,1122.02 618.178,1116.36 618.5,1110.5C 681.336,1110.17 744.002,1110.5 806.5,1111.5 Z"/></g>
<g><path style="opacity:1" fill="#1e1e1e" d="M 629.5,1192.5 C 630.404,1193.21 630.737,1194.21 630.5,1195.5C 420.167,1195.5 209.833,1195.5 -0.5,1195.5C -0.5,1195.17 -0.5,1194.83 -0.5,1194.5C 209.836,1195.17 419.836,1194.5 629.5,1192.5 Z"/></g>
<g><path style="opacity:1" fill="#ececec" d="M 634.5,1204.5 C 794.334,1204.17 954.001,1204.5 1113.5,1205.5C 953.999,1205.17 794.666,1205.5 635.5,1206.5C 634.662,1206.16 634.328,1205.49 634.5,1204.5 Z"/></g>
<g><path style="opacity:1" fill="#010101" d="M -0.5,1204.5 C 211.167,1204.5 422.833,1204.5 634.5,1204.5C 634.328,1205.49 634.662,1206.16 635.5,1206.5C 647.91,1239.08 668.91,1264.58 698.5,1283C 744.251,1308.36 793.251,1323.36 845.5,1328C 889.81,1332.18 934.143,1332.51 978.5,1329C 1026.47,1324.92 1071.13,1310.75 1112.5,1286.5C 1113.5,1378.33 1113.83,1470.33 1113.5,1562.5C 742.167,1562.5 370.833,1562.5 -0.5,1562.5C -0.5,1443.17 -0.5,1323.83 -0.5,1204.5 Z"/></g>
<g><path style="opacity:1" fill="#fefefe" d="M 1113.5,1205.5 C 1113.5,1232.17 1113.5,1258.83 1113.5,1285.5C 1112.83,1285.5 1112.5,1285.83 1112.5,1286.5C 1071.13,1310.75 1026.47,1324.92 978.5,1329C 934.143,1332.51 889.81,1332.18 845.5,1328C 793.251,1323.36 744.251,1308.36 698.5,1283C 668.91,1264.58 647.91,1239.08 635.5,1206.5C 794.666,1205.5 953.999,1205.17 1113.5,1205.5 Z"/></g>
<g><path style="opacity:1" fill="#b2b2b2" d="M 1123.5,1204.5 C 1123.17,1229.01 1123.5,1253.34 1124.5,1277.5C 1124.5,1278.17 1124.17,1278.5 1123.5,1278.5C 1122.17,1253.83 1122.17,1229.17 1123.5,1204.5 Z"/></g>
<g><path style="opacity:1" fill="#fdfdfd" d="M 1123.5,1204.5 C 1143.01,1204.17 1162.34,1204.5 1181.5,1205.5C 1169.66,1235.2 1150.66,1259.2 1124.5,1277.5C 1123.5,1253.34 1123.17,1229.01 1123.5,1204.5 Z"/></g>
<g><path style="opacity:1" fill="#010101" d="M 1258.5,1320.5 C 1290.66,1321.5 1323,1321.83 1355.5,1321.5C 1355.5,1401.83 1355.5,1482.17 1355.5,1562.5C 1278.17,1562.5 1200.83,1562.5 1123.5,1562.5C 1123.5,1467.83 1123.5,1373.17 1123.5,1278.5C 1124.17,1278.5 1124.5,1278.17 1124.5,1277.5C 1150.66,1259.2 1169.66,1235.2 1181.5,1205.5C 1206.76,1204.51 1232.09,1204.18 1257.5,1204.5C 1257.17,1243.34 1257.5,1282 1258.5,1320.5 Z"/></g>
<g><path style="opacity:1" fill="#fefefe" d="M 1258.5,1320.5 C 1258.5,1281.83 1258.5,1243.17 1258.5,1204.5C 1290.83,1204.5 1323.17,1204.5 1355.5,1204.5C 1355.5,1243.17 1355.5,1281.83 1355.5,1320.5C 1323.17,1320.5 1290.83,1320.5 1258.5,1320.5 Z"/></g>
<g><path style="opacity:1" fill="#fefefe" d="M 1365.5,1204.5 C 1395.83,1204.5 1426.17,1204.5 1456.5,1204.5C 1456.5,1243.17 1456.5,1281.83 1456.5,1320.5C 1426.17,1320.5 1395.83,1320.5 1365.5,1320.5C 1365.5,1281.83 1365.5,1243.17 1365.5,1204.5 Z"/></g>
<g><path style="opacity:1" fill="#000000" d="M 1562.5,1204.5 C 1562.5,1323.83 1562.5,1443.17 1562.5,1562.5C 1496.83,1562.5 1431.17,1562.5 1365.5,1562.5C 1365.5,1482.17 1365.5,1401.83 1365.5,1321.5C 1396.17,1321.5 1426.83,1321.5 1457.5,1321.5C 1457.5,1282.5 1457.5,1243.5 1457.5,1204.5C 1492.5,1204.5 1527.5,1204.5 1562.5,1204.5 Z"/></g>
<g><path style="opacity:1" fill="#5f5f5f" d="M 1112.5,1286.5 C 1112.5,1285.83 1112.83,1285.5 1113.5,1285.5C 1114.5,1377.67 1114.83,1470 1114.5,1562.5C 1114.17,1562.5 1113.83,1562.5 1113.5,1562.5C 1113.83,1470.33 1113.5,1378.33 1112.5,1286.5 Z"/></g>
</svg>
