 <svg  version="1.0" xmlns="http://www.w3.org/2000/svg"  width="300.000000pt" height="300.000000pt" viewBox="0 0 300.000000 300.000000"  preserveAspectRatio="xMidYMid meet">  <g transform="translate(0.000000,300.000000) scale(0.100000,-0.100000)" fill="#ffffff" stroke="none"> <path d="M2110 2775 c0 -157 -3 -225 -11 -225 -6 0 -25 6 -42 14 -18 8 -66 25 -107 38 -65 20 -96 23 -240 23 -189 0 -244 -11 -376 -75 -68 -33 -95 -54 -158 -121 l-76 -82 0 107 c0 100 -2 108 -25 131 l-24 25 -474 0 -474 0 -21 -23 c-21 -23 -22 -30 -22 -299 0 -238 -2 -279 -16 -292 -8 -9 -22 -16 -30 -16 -8 0 -14 -4 -14 -10 0 -5 20 -10 44 -10 25 0 48 -4 51 -10 4 -6 163 -10 446 -10 l439 0 0 -65 0 -65 -250 0 -250 0 0 -215 0 -215 -192 0 -193 0 3 280 3 280 -51 0 c-38 0 -50 -4 -50 -15 0 -9 9 -15 24 -15 13 0 27 -7 30 -16 3 -9 6 -127 6 -264 l0 -249 26 -20 c25 -19 40 -21 204 -21 242 0 224 -18 230 232 l5 193 225 5 c124 3 231 9 238 14 8 4 20 22 27 38 12 30 12 30 30 -41 22 -90 72 -192 123 -253 l40 -48 -19 -61 c-36 -114 -19 -247 43 -336 34 -50 111 -111 183 -145 l50 -23 -138 -5 c-133 -5 -140 -6 -159 -30 -17 -21 -19 -34 -14 -82 4 -45 2 -57 -10 -62 -9 -3 -270 -6 -580 -6 -369 0 -564 -3 -564 -10 0 -7 203 -10 589 -10 324 0 597 -3 607 -7 14 -5 16 -2 10 18 -4 13 -10 52 -13 87 l-6 62 180 0 181 0 6 -44 c12 -77 63 -106 184 -106 125 0 172 22 172 78 0 47 -44 65 -299 127 -163 39 -246 75 -308 135 -66 63 -86 110 -91 215 -7 161 47 254 191 325 104 51 192 70 334 70 138 0 236 -19 331 -66 l72 -35 0 -142 c0 -101 3 -138 11 -130 7 7 10 53 7 131 -3 131 1 138 46 74 36 -53 55 -102 62 -165 l7 -55 -59 5 -60 5 4 -77 c3 -48 0 -81 -7 -88 -7 -7 -11 -79 -11 -217 l0 -205 -442 2 c-362 1 -451 -1 -486 -13 -35 -11 -146 -14 -627 -14 -383 0 -585 -3 -585 -10 0 -7 203 -10 590 -10 l589 0 30 -43 c64 -94 178 -161 326 -193 122 -26 356 -24 455 5 41 12 85 24 98 28 l22 5 0 -231 c0 -199 2 -231 15 -231 13 0 15 36 15 264 l0 265 -52 -24 c-29 -13 -79 -31 -111 -39 -197 -51 -510 -14 -644 77 -43 30 -113 115 -113 138 0 5 199 9 460 9 l460 0 0 -74 c0 -41 5 -78 10 -81 6 -4 10 -105 10 -271 0 -145 4 -264 9 -264 5 0 10 114 13 254 l4 255 41 44 c22 24 46 55 53 68 17 31 29 39 61 39 34 0 39 -14 39 -115 0 -78 2 -85 26 -104 21 -17 41 -21 94 -21 53 0 69 -4 74 -16 3 -9 6 -103 6 -210 0 -123 4 -194 10 -194 6 0 10 81 10 224 0 139 4 227 10 231 7 4 10 -73 10 -224 0 -199 2 -231 15 -231 13 0 15 30 15 210 l0 210 60 0 c64 0 105 13 116 39 5 9 10 57 14 106 l5 90 78 3 c42 2 77 7 77 12 0 6 -35 10 -77 10 -43 0 -89 3 -101 7 -44 11 0 23 91 23 108 0 116 18 10 22 l-78 3 -5 456 c-6 535 3 496 -114 501 l-71 3 0 105 0 105 173 3 c144 2 172 5 172 17 0 13 -29 15 -190 15 l-190 0 0 -146 c0 -94 -4 -143 -10 -139 -6 4 -10 63 -10 146 l0 139 -124 0 c-73 0 -127 4 -131 10 -3 6 -31 10 -61 10 -54 0 -54 0 -54 31 0 31 -1 31 -35 26 l-35 -6 0 202 c0 111 -3 213 -6 227 -6 22 -1 20 40 -20 88 -84 155 -260 156 -412 l0 -48 125 0 125 0 0 520 c0 340 -3 520 -10 520 -11 0 -11 -1 -10 -567 0 -215 -2 -403 -6 -417 -6 -25 -8 -26 -89 -26 -46 0 -86 4 -89 8 -2 4 -7 36 -11 70 -15 144 -63 264 -143 355 -33 36 -54 70 -58 93 -4 20 -5 137 -2 260 4 183 2 224 -9 224 -10 0 -13 -50 -13 -265 0 -170 -4 -265 -10 -265 -6 0 -10 95 -10 265 0 229 -2 265 -15 265 -13 0 -15 -32 -15 -225z m-244 -196 c87 -15 175 -46 228 -79 l46 -30 0 -229 0 -230 -35 6 c-34 5 -35 5 -35 -26 0 -31 -1 -31 -49 -31 -28 0 -53 -4 -56 -10 -4 -6 15 -10 49 -10 56 0 56 0 56 -30 0 -28 3 -30 35 -30 l35 0 0 -139 0 -139 -57 28 c-56 28 -160 60 -194 60 -15 0 -12 9 16 50 31 47 55 122 55 175 l0 25 -249 0 c-156 0 -252 4 -256 10 -4 6 -80 10 -196 10 -119 0 -189 -4 -189 -10 0 -6 72 -10 195 -10 l195 0 0 -46 c0 -68 19 -120 61 -167 l37 -43 -52 -12 c-79 -18 -189 -77 -231 -123 -35 -39 -37 -40 -56 -23 -68 62 -134 213 -147 336 l-7 73 -40 3 c-22 2 -44 8 -49 13 -6 5 -188 9 -443 9 l-432 0 -3 305 -3 305 483 0 482 0 0 -142 0 -143 -290 3 -290 3 0 -105 0 -106 250 0 250 0 0 -60 0 -60 39 0 39 0 7 68 c29 316 169 485 452 546 81 17 266 20 349 5z m-809 -351 c-3 -13 -11 -54 -18 -91 l-11 -69 -27 26 -27 26 -224 2 -225 3 0 55 0 55 260 5 c143 3 264 7 269 8 4 1 6 -8 3 -20z m1083 -248 c0 -16 -7 -20 -30 -20 -32 0 -33 1 -24 24 9 24 54 21 54 -4z m70 0 c0 -15 -7 -20 -25 -20 -18 0 -25 5 -25 20 0 15 7 20 25 20 18 0 25 -5 25 -20z m-70 -60 c0 -15 -7 -20 -25 -20 -14 0 -25 2 -25 4 0 2 -3 11 -6 20 -5 13 1 16 25 16 24 0 31 -4 31 -20z m70 0 c0 -15 -7 -20 -25 -20 -18 0 -25 5 -25 20 0 15 7 20 25 20 18 0 25 -5 25 -20z m135 -37 c-14 -125 -54 -234 -113 -311 l-25 -33 -26 25 c-26 25 -26 25 -23 170 l3 146 35 0 c31 0 34 2 34 30 l0 30 61 0 61 0 -7 -57z m-435 -11 c0 -38 -39 -131 -64 -151 -6 -6 -67 -11 -135 -12 -139 -1 -146 1 -187 83 -23 46 -31 97 -17 111 3 4 96 7 205 7 l198 0 0 -38z m664 22 c10 -26 7 -164 -4 -185 -9 -16 -22 -19 -85 -19 -66 0 -76 -2 -89 -22 -12 -19 -16 -106 -21 -473 -4 -247 -9 -453 -12 -457 -2 -4 -9 -5 -16 -2 -8 3 -12 36 -12 107 0 123 -18 170 -94 250 -46 49 -51 58 -51 100 0 47 0 47 40 53 21 4 47 15 56 25 24 27 15 129 -18 199 l-26 54 28 36 c15 19 37 54 48 76 24 48 62 177 62 212 0 54 14 62 104 62 67 0 85 -3 90 -16z m28 -716 l-2 -473 -83 -1 c-45 -1 -106 -7 -135 -15 -47 -12 -58 -11 -106 5 -30 10 -68 17 -84 14 l-31 -4 -3 205 c-2 113 -2 208 -1 210 1 2 27 -21 57 -52 70 -70 91 -134 83 -247 -3 -41 -9 -84 -12 -95 -6 -19 -2 -20 62 -18 l68 1 0 471 0 471 95 0 95 0 -3 -472z m198 0 l0 -473 -90 0 -90 0 0 473 0 472 90 0 90 0 0 -472z m-990 -347 c91 -33 53 -73 -71 -74 -104 -1 -136 20 -153 99 l-7 32 93 -20 c51 -12 113 -28 138 -37z m460 -149 c0 -14 -54 -84 -90 -117 l-33 -30 6 25 c4 14 7 49 7 78 l0 52 55 0 c30 0 55 -4 55 -8z m330 -91 c0 -55 3 -106 6 -115 5 -14 -7 -16 -96 -16 l-102 0 6 31 c3 17 6 69 6 115 l0 84 90 0 90 0 0 -99z m200 -16 l0 -115 -90 0 -90 0 0 115 0 115 90 0 90 0 0 -115z"/> <path d="M1640 2299 c-63 -13 -119 -55 -149 -114 -21 -39 -27 -67 -29 -137 l-4 -87 251 -3 251 -3 0 59 c0 128 -56 236 -139 269 -52 21 -126 28 -181 16z m157 -50 c60 -23 106 -88 118 -171 14 -91 22 -88 -211 -88 l-204 0 0 54 c0 96 40 173 105 202 36 16 153 18 192 3z"/> <path d="M2627 2833 c-4 -91 -7 -325 -7 -520 l0 -353 190 0 c162 0 190 2 190 15 0 13 -26 15 -175 15 l-175 0 0 505 c0 501 -11 658 -23 338z"/> <path d="M1642 1390 c-38 -23 -47 -40 -38 -76 9 -35 63 -57 232 -95 122 -27 230 -58 287 -83 15 -7 17 -1 17 74 l0 82 -115 -4 c-92 -2 -115 0 -115 10 0 28 -31 78 -59 95 -43 25 -165 23 -209 -3z m157 -6 c60 -12 30 -24 -61 -24 -92 0 -106 6 -46 20 44 10 69 11 107 4z m77 -91 c27 -51 28 -51 -102 -18 -122 31 -139 45 -58 46 32 1 70 5 84 9 40 13 52 7 76 -37z m218 -49 c17 -7 22 -39 7 -48 -4 -3 -37 4 -72 16 -61 21 -62 23 -34 29 41 9 80 10 99 3z"/> </g> </svg> 